ISO-10303-21;
HEADER;
FILE_DESCRIPTION(('ViewDefinition[DesignTransferView]'),'2;1');
FILE_NAME('/dev/null','2026-09-14T11:18:29+05:00',(''),(''),'IfcOpenShell 0.8.5','IfcOpenShell 0.8.5','Nobody');
FILE_SCHEMA(('IFC4'));
ENDSEC;
DATA;
#1=IFCPROJECT('0HrmXzv5HPPhi0M2ls68Fz',$,'Namuna GES',$,$,$,$,(#10),#5);
#2=IFCSIUNIT(*,.LENGTHUNIT.,.MILLI.,.METRE.);
#3=IFCSIUNIT(*,.AREAUNIT.,$,.SQUARE_METRE.);
#4=IFCSIUNIT(*,.VOLUMEUNIT.,$,.CUBIC_METRE.);
#5=IFCUNITASSIGNMENT((#3,#4,#2));
#6=IFCCARTESIANPOINT((0.,0.,0.));
#7=IFCDIRECTION((0.,0.,1.));
#8=IFCDIRECTION((1.,0.,0.));
#9=IFCAXIS2PLACEMENT3D(#6,#7,#8);
#10=IFCGEOMETRICREPRESENTATIONCONTEXT($,'Model',3,1.0000000000000001E-05,#9,$);
#11=IFCGEOMETRICREPRESENTATIONSUBCONTEXT('Body','Model',*,*,*,*,#10,$,.MODEL_VIEW.,$);
#12=IFCSITE('08m1vUaAHLcRn2COU_G__o',$,'GES maydoni',$,$,$,$,$,$,$,$,$,$,$);
#13=IFCBUILDING('1EiP2$C4XKX99MWaXwNI0E',$,'Mashina zali',$,$,$,$,$,$,$,$,$);
#14=IFCBUILDINGSTOREY('2Sja$nb2PIhgSgCEcWAh_K',$,'Turbina qavati',$,$,$,$,$,$,$);
#15=IFCBUILDINGSTOREY('3tpi6OPUrONgZttUvdFDPo',$,'Generator qavati',$,$,#23,$,$,$,6.);
#16=IFCRELAGGREGATES('1fZIX8EUv5OP4DaGQwZ4Eg',$,$,$,#1,(#12));
#17=IFCRELAGGREGATES('0PTP_AcjvFV99EV_6acnT4',$,$,$,#12,(#13));
#18=IFCRELAGGREGATES('13C2j6FIb8z8fESb90gw8m',$,$,$,#13,(#14,#15));
#19=IFCCARTESIANPOINT((0.,0.,6000.));
#20=IFCDIRECTION((0.,0.,1.));
#21=IFCDIRECTION((1.,0.,0.));
#22=IFCAXIS2PLACEMENT3D(#19,#20,#21);
#23=IFCLOCALPLACEMENT($,#22);
#24=IFCWALL('3Otegdmh5PzO0aPkQkEmdO',$,'To''g''on',$,$,#41,#36,$,.SOLIDWALL.);
#25=IFCRELCONTAINEDINSPATIALSTRUCTURE('1eFgQBrkP3VuyAdzrGd$ap',$,$,$,(#311,#291,#24,#47,#191),#12);
#26=IFCCARTESIANPOINTLIST2D(((0.,0.),(0.,8000.),(60000.,8000.),(60000.,0.),(0.,0.)));
#27=IFCINDEXEDPOLYCURVE(#26,$,.F.);
#28=IFCDIRECTION((0.,0.,1.));
#29=IFCARBITRARYCLOSEDPROFILEDEF(.AREA.,$,#27);
#30=IFCCARTESIANPOINT((0.,0.,0.));
#31=IFCDIRECTION((0.,0.,1.));
#32=IFCDIRECTION((1.,0.,0.));
#33=IFCAXIS2PLACEMENT3D(#30,#31,#32);
#34=IFCEXTRUDEDAREASOLID(#29,#33,#28,22000.);
#35=IFCSHAPEREPRESENTATION(#11,'Body','SweptSolid',(#34));
#36=IFCPRODUCTDEFINITIONSHAPE($,$,(#35));
#37=IFCCARTESIANPOINT((-30000.,-25000.,0.));
#38=IFCDIRECTION((0.,0.,1.));
#39=IFCDIRECTION((1.,0.,0.));
#40=IFCAXIS2PLACEMENT3D(#37,#38,#39);
#41=IFCLOCALPLACEMENT($,#40);
#42=IFCPROPERTYSET('1L2UJPtj14befgAlGNUzpQ',$,'Pset_GES_Dam',$,(#44,#45,#46));
#43=IFCRELDEFINESBYPROPERTIES('2TZ50Kfw13IQvm8Yj6gP35',$,$,$,(#24),#42);
#44=IFCPROPERTYSINGLEVALUE('Turi',$,IFCLABEL('Gravitatsion'),$);
#45=IFCPROPERTYSINGLEVALUE('Balandlik_m',$,IFCREAL(22.),$);
#46=IFCPROPERTYSINGLEVALUE('Uzunlik_m',$,IFCREAL(60.),$);
#47=IFCSLAB('171g5VZ0DLwg6FlDddr9ge',$,'Suv tashlagich',$,$,#63,#58,$,$);
#48=IFCCARTESIANPOINTLIST2D(((0.,0.),(0.,10000.),(12000.,10000.),(12000.,0.),(0.,0.)));
#49=IFCINDEXEDPOLYCURVE(#48,$,.F.);
#50=IFCDIRECTION((0.,0.,1.));
#51=IFCARBITRARYCLOSEDPROFILEDEF(.AREA.,$,#49);
#52=IFCCARTESIANPOINT((0.,0.,0.));
#53=IFCDIRECTION((0.,0.,1.));
#54=IFCDIRECTION((1.,0.,0.));
#55=IFCAXIS2PLACEMENT3D(#52,#53,#54);
#56=IFCEXTRUDEDAREASOLID(#51,#55,#50,1000.);
#57=IFCSHAPEREPRESENTATION(#11,'Body','SweptSolid',(#56));
#58=IFCPRODUCTDEFINITIONSHAPE($,$,(#57));
#59=IFCCARTESIANPOINT((10000.,-17000.,12000.));
#60=IFCDIRECTION((0.,0.,1.));
#61=IFCDIRECTION((1.,0.,0.));
#62=IFCAXIS2PLACEMENT3D(#59,#60,#61);
#63=IFCLOCALPLACEMENT($,#62);
#64=IFCSLAB('09BIUyhxbJlO0CuxpiYVdw',$,'Turbina qavati poli',$,$,#81,#76,$,.FLOOR.);
#65=IFCRELCONTAINEDINSPATIALSTRUCTURE('0O95DaZBDCJgAB7cLFFAcw',$,$,$,(#116,#133,#82,#150,#99,#211,#64,#251),#14);
#66=IFCCARTESIANPOINTLIST2D(((0.,0.),(0.,14000.),(30000.,14000.),(30000.,0.),(0.,0.)));
#67=IFCINDEXEDPOLYCURVE(#66,$,.F.);
#68=IFCDIRECTION((0.,0.,1.));
#69=IFCARBITRARYCLOSEDPROFILEDEF(.AREA.,$,#67);
#70=IFCCARTESIANPOINT((0.,0.,0.));
#71=IFCDIRECTION((0.,0.,1.));
#72=IFCDIRECTION((1.,0.,0.));
#73=IFCAXIS2PLACEMENT3D(#70,#71,#72);
#74=IFCEXTRUDEDAREASOLID(#69,#73,#68,500.);
#75=IFCSHAPEREPRESENTATION(#11,'Body','SweptSolid',(#74));
#76=IFCPRODUCTDEFINITIONSHAPE($,$,(#75));
#77=IFCCARTESIANPOINT((-15000.,0.,0.));
#78=IFCDIRECTION((0.,0.,1.));
#79=IFCDIRECTION((1.,0.,0.));
#80=IFCAXIS2PLACEMENT3D(#77,#78,#79);
#81=IFCLOCALPLACEMENT($,#80);
#82=IFCWALL('0qEnPavyPVFACcggJOwPiF',$,'Zal devori 1',$,$,#98,#93,$,$);
#83=IFCCARTESIANPOINTLIST2D(((0.,0.),(0.,400.),(30000.,400.),(30000.,0.),(0.,0.)));
#84=IFCINDEXEDPOLYCURVE(#83,$,.F.);
#85=IFCDIRECTION((0.,0.,1.));
#86=IFCARBITRARYCLOSEDPROFILEDEF(.AREA.,$,#84);
#87=IFCCARTESIANPOINT((0.,0.,0.));
#88=IFCDIRECTION((0.,0.,1.));
#89=IFCDIRECTION((1.,0.,0.));
#90=IFCAXIS2PLACEMENT3D(#87,#88,#89);
#91=IFCEXTRUDEDAREASOLID(#86,#90,#85,12000.);
#92=IFCSHAPEREPRESENTATION(#11,'Body','SweptSolid',(#91));
#93=IFCPRODUCTDEFINITIONSHAPE($,$,(#92));
#94=IFCCARTESIANPOINT((-15000.,0.,500.));
#95=IFCDIRECTION((0.,0.,1.));
#96=IFCDIRECTION((1.,0.,0.));
#97=IFCAXIS2PLACEMENT3D(#94,#95,#96);
#98=IFCLOCALPLACEMENT($,#97);
#99=IFCWALL('24yrS1FULQwAxrhLdddzo4',$,'Zal devori 2',$,$,#115,#110,$,$);
#100=IFCCARTESIANPOINTLIST2D(((0.,0.),(0.,400.),(30000.,400.),(30000.,0.),(0.,0.)));
#101=IFCINDEXEDPOLYCURVE(#100,$,.F.);
#102=IFCDIRECTION((0.,0.,1.));
#103=IFCARBITRARYCLOSEDPROFILEDEF(.AREA.,$,#101);
#104=IFCCARTESIANPOINT((0.,0.,0.));
#105=IFCDIRECTION((0.,0.,1.));
#106=IFCDIRECTION((1.,0.,0.));
#107=IFCAXIS2PLACEMENT3D(#104,#105,#106);
#108=IFCEXTRUDEDAREASOLID(#103,#107,#102,12000.);
#109=IFCSHAPEREPRESENTATION(#11,'Body','SweptSolid',(#108));
#110=IFCPRODUCTDEFINITIONSHAPE($,$,(#109));
#111=IFCCARTESIANPOINT((-15000.,14000.,500.));
#112=IFCDIRECTION((0.,0.,1.));
#113=IFCDIRECTION((1.,0.,0.));
#114=IFCAXIS2PLACEMENT3D(#111,#112,#113);
#115=IFCLOCALPLACEMENT($,#114);
#116=IFCWALL('1BOtwasNPUXOjfbEuwImmb',$,'Zal devori 3',$,$,#132,#127,$,$);
#117=IFCCARTESIANPOINTLIST2D(((0.,0.),(0.,400.),(14000.,400.),(14000.,0.),(0.,0.)));
#118=IFCINDEXEDPOLYCURVE(#117,$,.F.);
#119=IFCDIRECTION((0.,0.,1.));
#120=IFCARBITRARYCLOSEDPROFILEDEF(.AREA.,$,#118);
#121=IFCCARTESIANPOINT((0.,0.,0.));
#122=IFCDIRECTION((0.,0.,1.));
#123=IFCDIRECTION((1.,0.,0.));
#124=IFCAXIS2PLACEMENT3D(#121,#122,#123);
#125=IFCEXTRUDEDAREASOLID(#120,#124,#119,12000.);
#126=IFCSHAPEREPRESENTATION(#11,'Body','SweptSolid',(#125));
#127=IFCPRODUCTDEFINITIONSHAPE($,$,(#126));
#128=IFCCARTESIANPOINT((-15000.,0.,500.));
#129=IFCDIRECTION((0.,0.,1.));
#130=IFCDIRECTION((6.123233995736766E-17,1.,0.));
#131=IFCAXIS2PLACEMENT3D(#128,#129,#130);
#132=IFCLOCALPLACEMENT($,#131);
#133=IFCWALL('3uZrZqMs5QHQ7VN3Jw3UgM',$,'Zal devori 4',$,$,#149,#144,$,$);
#134=IFCCARTESIANPOINTLIST2D(((0.,0.),(0.,400.),(14000.,400.),(14000.,0.),(0.,0.)));
#135=IFCINDEXEDPOLYCURVE(#134,$,.F.);
#136=IFCDIRECTION((0.,0.,1.));
#137=IFCARBITRARYCLOSEDPROFILEDEF(.AREA.,$,#135);
#138=IFCCARTESIANPOINT((0.,0.,0.));
#139=IFCDIRECTION((0.,0.,1.));
#140=IFCDIRECTION((1.,0.,0.));
#141=IFCAXIS2PLACEMENT3D(#138,#139,#140);
#142=IFCEXTRUDEDAREASOLID(#137,#141,#136,12000.);
#143=IFCSHAPEREPRESENTATION(#11,'Body','SweptSolid',(#142));
#144=IFCPRODUCTDEFINITIONSHAPE($,$,(#143));
#145=IFCCARTESIANPOINT((15000.,0.,500.));
#146=IFCDIRECTION((0.,0.,1.));
#147=IFCDIRECTION((6.123233995736766E-17,1.,0.));
#148=IFCAXIS2PLACEMENT3D(#145,#146,#147);
#149=IFCLOCALPLACEMENT($,#148);
#150=IFCFLOWMOVINGDEVICE('0Fjs5ecyrLN9QTHVqeY9Ck',$,'Turbina 1',$,$,#166,#161,$);
#151=IFCCARTESIANPOINTLIST2D(((0.,0.),(0.,3000.),(3000.,3000.),(3000.,0.),(0.,0.)));
#152=IFCINDEXEDPOLYCURVE(#151,$,.F.);
#153=IFCDIRECTION((0.,0.,1.));
#154=IFCARBITRARYCLOSEDPROFILEDEF(.AREA.,$,#152);
#155=IFCCARTESIANPOINT((0.,0.,0.));
#156=IFCDIRECTION((0.,0.,1.));
#157=IFCDIRECTION((1.,0.,0.));
#158=IFCAXIS2PLACEMENT3D(#155,#156,#157);
#159=IFCEXTRUDEDAREASOLID(#154,#158,#153,2500.);
#160=IFCSHAPEREPRESENTATION(#11,'Body','SweptSolid',(#159));
#161=IFCPRODUCTDEFINITIONSHAPE($,$,(#160));
#162=IFCCARTESIANPOINT((-11500.,5500.,500.));
#163=IFCDIRECTION((0.,0.,1.));
#164=IFCDIRECTION((1.,0.,0.));
#165=IFCAXIS2PLACEMENT3D(#162,#163,#164);
#166=IFCLOCALPLACEMENT($,#165);
#167=IFCPROPERTYSET('3h4A34QNrEsOuh1j0WHR2X',$,'Pset_GES_Turbine',$,(#169,#170,#171,#172));
#168=IFCRELDEFINESBYPROPERTIES('2WT1ngYsv81PR_OUHxwVtu',$,$,$,(#150),#167);
#169=IFCPROPERTYSINGLEVALUE('Turi',$,IFCLABEL('Francis'),$);
#170=IFCPROPERTYSINGLEVALUE('Quvvat_MW',$,IFCREAL(25.),$);
#171=IFCPROPERTYSINGLEVALUE('Napor_m',$,IFCREAL(45.),$);
#172=IFCPROPERTYSINGLEVALUE('Sarf_m3s',$,IFCREAL(62.),$);
#173=IFCELECTRICGENERATOR('0l2YX6MhvG8eESUnY0aGg4',$,'Generator 1',$,$,#190,#185,$,$);
#174=IFCRELCONTAINEDINSPATIALSTRUCTURE('1FPBcYRQ177wxop6OlAd_a',$,$,$,(#274,#234,#173),#15);
#175=IFCCARTESIANPOINTLIST2D(((0.,0.),(0.,3000.),(3000.,3000.),(3000.,0.),(0.,0.)));
#176=IFCINDEXEDPOLYCURVE(#175,$,.F.);
#177=IFCDIRECTION((0.,0.,1.));
#178=IFCARBITRARYCLOSEDPROFILEDEF(.AREA.,$,#176);
#179=IFCCARTESIANPOINT((0.,0.,0.));
#180=IFCDIRECTION((0.,0.,1.));
#181=IFCDIRECTION((1.,0.,0.));
#182=IFCAXIS2PLACEMENT3D(#179,#180,#181);
#183=IFCEXTRUDEDAREASOLID(#178,#182,#177,2000.);
#184=IFCSHAPEREPRESENTATION(#11,'Body','SweptSolid',(#183));
#185=IFCPRODUCTDEFINITIONSHAPE($,$,(#184));
#186=IFCCARTESIANPOINT((-11500.,5500.,0.));
#187=IFCDIRECTION((0.,0.,1.));
#188=IFCDIRECTION((1.,0.,0.));
#189=IFCAXIS2PLACEMENT3D(#186,#187,#188);
#190=IFCLOCALPLACEMENT(#23,#189);
#191=IFCPIPESEGMENT('1co$qRc3HNQhvxx7DQ$zKf',$,'Bosimli quvur 1',$,$,#205,#200,$,$);
#192=IFCCIRCLEPROFILEDEF(.AREA.,$,$,1200.);
#193=IFCCARTESIANPOINT((0.,0.,0.));
#194=IFCDIRECTION((0.,0.,1.));
#195=IFCDIRECTION((1.,0.,0.));
#196=IFCAXIS2PLACEMENT3D(#193,#194,#195);
#197=IFCDIRECTION((0.,0.,1.));
#198=IFCEXTRUDEDAREASOLID(#192,#196,#197,22000.);
#199=IFCSHAPEREPRESENTATION(#11,'Body','SweptSolid',(#198));
#200=IFCPRODUCTDEFINITIONSHAPE($,$,(#199));
#201=IFCCARTESIANPOINT((-10000.,-17000.,8000.));
#202=IFCDIRECTION((0.,1.,6.123233995736766E-17));
#203=IFCDIRECTION((1.,0.,0.));
#204=IFCAXIS2PLACEMENT3D(#201,#202,#203);
#205=IFCLOCALPLACEMENT($,#204);
#206=IFCPROPERTYSET('1ZdnAnI3z8bv5Z7FZE0idt',$,'Pset_GES_Penstock',$,(#208,#209,#210));
#207=IFCRELDEFINESBYPROPERTIES('3wfdUMBpf8x9dnAiAdA$qA',$,$,$,(#191),#206);
#208=IFCPROPERTYSINGLEVALUE('Diametr_m',$,IFCREAL(2.3999999999999999),$);
#209=IFCPROPERTYSINGLEVALUE('Uzunlik_m',$,IFCREAL(18.),$);
#210=IFCPROPERTYSINGLEVALUE('Material',$,IFCLABEL('Po''lat'),$);
#211=IFCFLOWMOVINGDEVICE('2tznss7wfSdOj5eYZbWbfD',$,'Turbina 2',$,$,#227,#222,$);
#212=IFCCARTESIANPOINTLIST2D(((0.,0.),(0.,3000.),(3000.,3000.),(3000.,0.),(0.,0.)));
#213=IFCINDEXEDPOLYCURVE(#212,$,.F.);
#214=IFCDIRECTION((0.,0.,1.));
#215=IFCARBITRARYCLOSEDPROFILEDEF(.AREA.,$,#213);
#216=IFCCARTESIANPOINT((0.,0.,0.));
#217=IFCDIRECTION((0.,0.,1.));
#218=IFCDIRECTION((1.,0.,0.));
#219=IFCAXIS2PLACEMENT3D(#216,#217,#218);
#220=IFCEXTRUDEDAREASOLID(#215,#219,#214,2500.);
#221=IFCSHAPEREPRESENTATION(#11,'Body','SweptSolid',(#220));
#222=IFCPRODUCTDEFINITIONSHAPE($,$,(#221));
#223=IFCCARTESIANPOINT((-1500.,5500.,500.));
#224=IFCDIRECTION((0.,0.,1.));
#225=IFCDIRECTION((1.,0.,0.));
#226=IFCAXIS2PLACEMENT3D(#223,#224,#225);
#227=IFCLOCALPLACEMENT($,#226);
#228=IFCPROPERTYSET('1HPbJVQ_54PuIm$qU9VB4L',$,'Pset_GES_Turbine',$,(#230,#231,#232,#233));
#229=IFCRELDEFINESBYPROPERTIES('38XMp542D7eBwA4TMRkbpt',$,$,$,(#211),#228);
#230=IFCPROPERTYSINGLEVALUE('Turi',$,IFCLABEL('Francis'),$);
#231=IFCPROPERTYSINGLEVALUE('Quvvat_MW',$,IFCREAL(25.),$);
#232=IFCPROPERTYSINGLEVALUE('Napor_m',$,IFCREAL(45.),$);
#233=IFCPROPERTYSINGLEVALUE('Sarf_m3s',$,IFCREAL(62.),$);
#234=IFCELECTRICGENERATOR('0gN7cxJkbOvfsyzyWeSRyt',$,'Generator 2',$,$,#250,#245,$,$);
#235=IFCCARTESIANPOINTLIST2D(((0.,0.),(0.,3000.),(3000.,3000.),(3000.,0.),(0.,0.)));
#236=IFCINDEXEDPOLYCURVE(#235,$,.F.);
#237=IFCDIRECTION((0.,0.,1.));
#238=IFCARBITRARYCLOSEDPROFILEDEF(.AREA.,$,#236);
#239=IFCCARTESIANPOINT((0.,0.,0.));
#240=IFCDIRECTION((0.,0.,1.));
#241=IFCDIRECTION((1.,0.,0.));
#242=IFCAXIS2PLACEMENT3D(#239,#240,#241);
#243=IFCEXTRUDEDAREASOLID(#238,#242,#237,2000.);
#244=IFCSHAPEREPRESENTATION(#11,'Body','SweptSolid',(#243));
#245=IFCPRODUCTDEFINITIONSHAPE($,$,(#244));
#246=IFCCARTESIANPOINT((-1500.,5500.,0.));
#247=IFCDIRECTION((0.,0.,1.));
#248=IFCDIRECTION((1.,0.,0.));
#249=IFCAXIS2PLACEMENT3D(#246,#247,#248);
#250=IFCLOCALPLACEMENT(#23,#249);
#251=IFCFLOWMOVINGDEVICE('2yUkqrxWTQ8h0cSd$mx1sd',$,'Turbina 3',$,$,#267,#262,$);
#252=IFCCARTESIANPOINTLIST2D(((0.,0.),(0.,3000.),(3000.,3000.),(3000.,0.),(0.,0.)));
#253=IFCINDEXEDPOLYCURVE(#252,$,.F.);
#254=IFCDIRECTION((0.,0.,1.));
#255=IFCARBITRARYCLOSEDPROFILEDEF(.AREA.,$,#253);
#256=IFCCARTESIANPOINT((0.,0.,0.));
#257=IFCDIRECTION((0.,0.,1.));
#258=IFCDIRECTION((1.,0.,0.));
#259=IFCAXIS2PLACEMENT3D(#256,#257,#258);
#260=IFCEXTRUDEDAREASOLID(#255,#259,#254,2500.);
#261=IFCSHAPEREPRESENTATION(#11,'Body','SweptSolid',(#260));
#262=IFCPRODUCTDEFINITIONSHAPE($,$,(#261));
#263=IFCCARTESIANPOINT((8500.,5500.,500.));
#264=IFCDIRECTION((0.,0.,1.));
#265=IFCDIRECTION((1.,0.,0.));
#266=IFCAXIS2PLACEMENT3D(#263,#264,#265);
#267=IFCLOCALPLACEMENT($,#266);
#268=IFCPROPERTYSET('3ykn3khi98NgWCfddr3hd2',$,'Pset_GES_Turbine',$,(#270,#271,#272,#273));
#269=IFCRELDEFINESBYPROPERTIES('1jDk1fPxDDqxSwHQ1hb8qK',$,$,$,(#251),#268);
#270=IFCPROPERTYSINGLEVALUE('Turi',$,IFCLABEL('Francis'),$);
#271=IFCPROPERTYSINGLEVALUE('Quvvat_MW',$,IFCREAL(25.),$);
#272=IFCPROPERTYSINGLEVALUE('Napor_m',$,IFCREAL(45.),$);
#273=IFCPROPERTYSINGLEVALUE('Sarf_m3s',$,IFCREAL(62.),$);
#274=IFCELECTRICGENERATOR('1DAf4bfh5QvflNOJK7OnH6',$,'Generator 3',$,$,#290,#285,$,$);
#275=IFCCARTESIANPOINTLIST2D(((0.,0.),(0.,3000.),(3000.,3000.),(3000.,0.),(0.,0.)));
#276=IFCINDEXEDPOLYCURVE(#275,$,.F.);
#277=IFCDIRECTION((0.,0.,1.));
#278=IFCARBITRARYCLOSEDPROFILEDEF(.AREA.,$,#276);
#279=IFCCARTESIANPOINT((0.,0.,0.));
#280=IFCDIRECTION((0.,0.,1.));
#281=IFCDIRECTION((1.,0.,0.));
#282=IFCAXIS2PLACEMENT3D(#279,#280,#281);
#283=IFCEXTRUDEDAREASOLID(#278,#282,#277,2000.);
#284=IFCSHAPEREPRESENTATION(#11,'Body','SweptSolid',(#283));
#285=IFCPRODUCTDEFINITIONSHAPE($,$,(#284));
#286=IFCCARTESIANPOINT((8500.,5500.,0.));
#287=IFCDIRECTION((0.,0.,1.));
#288=IFCDIRECTION((1.,0.,0.));
#289=IFCAXIS2PLACEMENT3D(#286,#287,#288);
#290=IFCLOCALPLACEMENT(#23,#289);
#291=IFCPIPESEGMENT('3W8xR$t5PMUhDJ02tWQTTp',$,'Bosimli quvur 3',$,$,#305,#300,$,$);
#292=IFCCIRCLEPROFILEDEF(.AREA.,$,$,1200.);
#293=IFCCARTESIANPOINT((0.,0.,0.));
#294=IFCDIRECTION((0.,0.,1.));
#295=IFCDIRECTION((1.,0.,0.));
#296=IFCAXIS2PLACEMENT3D(#293,#294,#295);
#297=IFCDIRECTION((0.,0.,1.));
#298=IFCEXTRUDEDAREASOLID(#292,#296,#297,22000.);
#299=IFCSHAPEREPRESENTATION(#11,'Body','SweptSolid',(#298));
#300=IFCPRODUCTDEFINITIONSHAPE($,$,(#299));
#301=IFCCARTESIANPOINT((10000.,-17000.,8000.));
#302=IFCDIRECTION((0.,1.,6.123233995736766E-17));
#303=IFCDIRECTION((1.,0.,0.));
#304=IFCAXIS2PLACEMENT3D(#301,#302,#303);
#305=IFCLOCALPLACEMENT($,#304);
#306=IFCPROPERTYSET('0wqkXYKfTFxB2rj3hpVEcq',$,'Pset_GES_Penstock',$,(#308,#309,#310));
#307=IFCRELDEFINESBYPROPERTIES('0BWssp7Ab0KQGSzEcICyie',$,$,$,(#291),#306);
#308=IFCPROPERTYSINGLEVALUE('Diametr_m',$,IFCREAL(2.3999999999999999),$);
#309=IFCPROPERTYSINGLEVALUE('Uzunlik_m',$,IFCREAL(18.),$);
#310=IFCPROPERTYSINGLEVALUE('Material',$,IFCLABEL('Po''lat'),$);
#311=IFCTRANSFORMER('3g78NPb2HPSBZ9mnkAbk$O',$,'Transformator',$,$,#327,#322,$,$);
#312=IFCCARTESIANPOINTLIST2D(((0.,0.),(0.,3000.),(4000.,3000.),(4000.,0.),(0.,0.)));
#313=IFCINDEXEDPOLYCURVE(#312,$,.F.);
#314=IFCDIRECTION((0.,0.,1.));
#315=IFCARBITRARYCLOSEDPROFILEDEF(.AREA.,$,#313);
#316=IFCCARTESIANPOINT((0.,0.,0.));
#317=IFCDIRECTION((0.,0.,1.));
#318=IFCDIRECTION((1.,0.,0.));
#319=IFCAXIS2PLACEMENT3D(#316,#317,#318);
#320=IFCEXTRUDEDAREASOLID(#315,#319,#314,3000.);
#321=IFCSHAPEREPRESENTATION(#11,'Body','SweptSolid',(#320));
#322=IFCPRODUCTDEFINITIONSHAPE($,$,(#321));
#323=IFCCARTESIANPOINT((20000.,6000.,0.));
#324=IFCDIRECTION((0.,0.,1.));
#325=IFCDIRECTION((1.,0.,0.));
#326=IFCAXIS2PLACEMENT3D(#323,#324,#325);
#327=IFCLOCALPLACEMENT($,#326);
ENDSEC;
END-ISO-10303-21;
